<svg
  width="400"
  height="400"
  viewBox="0 0 1024 1024"
  xmlns="http://www.w3.org/2000/svg"
>
  <style>
    text {
      font-family: "Pixelify Sans", sans-serif;
    }
  </style>

  <rect width="1024" height="1024" rx="124" fill="#009ae2"/>

  <defs>
    <clipPath id="b">
      <text
        x="50%"
        y="50%"
        dominant-baseline="middle"
        text-anchor="middle"
        font-size="512"
      >
        WEB
      </text>
    </clipPath>

    <svg id="a" viewBox="0 0 48 48" height="1024" width="1024">
      <path d="m26.262 22.761-2.448-2.449a3 3 0 0 0-4.232-.01L2.564 36.006c-.62.584-1.027 1.328-1.064 2.162a3 3 0 0 0 .863 2.244L6.02 44.11l.006.006a3.03 3.03 0 0 0 2.127.883h.11c.834-.03 1.58-.421 2.173-1.047l15.816-16.94a3 3 0 0 0 .01-4.25m19.674-4.95-.03-.03-3.212-3.18a2 2 0 0 0-1.433-.586c-.43 0-.85.136-1.199.388 0-.04.006-.08.009-.114.042-.61.108-1.53-.488-2.365a24 24 0 0 0-2.332-2.702c-1.249-1.23-3.967-3.546-8.13-5.244A13.1 13.1 0 0 0 24.145 3c-2.959 0-5.209 1.336-6.07 2.127q-.733.7-1.33 1.52a1.5 1.5 0 0 0 1.749 2.282q.395-.147.804-.246a6 6 0 0 1 1.73-.108c1.236.102 2.699.716 3.346 1.227 1.097.882 1.624 2.07 1.712 3.852.016.358-.724 1.7-1.875 3.233a1.5 1.5 0 0 0 .135 1.968l3.226 3.226a1.5 1.5 0 0 0 2.063.058c.912-.814 2.301-2.043 2.787-2.343.72-.444 1.237-.53 1.378-.544.367-.036.737.042 1.059.223a.12.12 0 0 1-.03.089l-.17.162-.028.026a2.016 2.016 0 0 0 .004 2.864l3.212 3.179a2 2 0 0 0 1.433.585 2.04 2.04 0 0 0 1.427-.58l5.203-5.14.052-.055a2.05 2.05 0 0 0-.026-2.792"/>
    </svg>
  </defs>

  <text
    x="50%"
    y="50%"
    dominant-baseline="middle"
    text-anchor="middle"
    font-size="512"
  >
    WEB
  </text>

  <use href="#a"/>
  <g clip-path="url(#b)">
    <use href="#a" fill="#fff"/>
  </g>
</svg>
